<?xml version="1.0" encoding="UTF-8" standalone="no"?><!DOCTYPE svg PUBLIC "-//W3C//DTD SVG 1.1//EN" "http://www.w3.org/Graphics/SVG/1.1/DTD/svg11.dtd"><svg width="100%" height="100%" viewBox="0 0 2160 2160" version="1.1" xmlns="http://www.w3.org/2000/svg" xmlns:xlink="http://www.w3.org/1999/xlink" xml:space="preserve" xmlns:serif="http://www.serif.com/" style="fill-rule:evenodd;clip-rule:evenodd;stroke-linecap:round;stroke-linejoin:round;stroke-miterlimit:1.5;"><g id="Horizontal"><path d="M0,119.5l2160,1" style="fill:none;stroke:#808080;stroke-width:2.08px;"/><path d="M0,239.5l2160,1" style="fill:none;stroke:#808080;stroke-width:2.08px;"/><path d="M0,359.5l2160,1" style="fill:none;stroke:#808080;stroke-width:2.08px;"/><path d="M0,479.5l2160,1" style="fill:none;stroke:#808080;stroke-width:2.08px;"/><path d="M0,599.5l2160,1" style="fill:none;stroke:#808080;stroke-width:2.08px;"/><path d="M0,719.5l2160,1" style="fill:none;stroke:#808080;stroke-width:2.08px;"/><path d="M0,839.5l2160,1" style="fill:none;stroke:#808080;stroke-width:2.08px;"/><path d="M0,959.5l2160,1" style="fill:none;stroke:#808080;stroke-width:2.08px;"/><path d="M0,1079.5l2160,1" style="fill:none;stroke:#808080;stroke-width:2.08px;"/><path d="M0,1199.5l2160,1" style="fill:none;stroke:#808080;stroke-width:2.08px;"/><path d="M0,1319.5l2160,1" style="fill:none;stroke:#808080;stroke-width:2.08px;"/><path d="M0,1439.5l2160,1" style="fill:none;stroke:#808080;stroke-width:2.08px;"/><path d="M0,1559.5l2160,1" style="fill:none;stroke:#808080;stroke-width:2.08px;"/><path d="M0,1679.5l2160,1" style="fill:none;stroke:#808080;stroke-width:2.08px;"/><path d="M0,1799.5l2160,1" style="fill:none;stroke:#808080;stroke-width:2.08px;"/><path d="M0,1919.5l2160,1" style="fill:none;stroke:#808080;stroke-width:2.08px;"/><path d="M0,2039.5l2160,1" style="fill:none;stroke:#808080;stroke-width:2.08px;"/></g><g id="Vertical"><path d="M119.5,2160l1,-2160" style="fill:none;stroke:#808080;stroke-width:2.08px;"/><path d="M239.5,2160l1,-2160" style="fill:none;stroke:#808080;stroke-width:2.08px;"/><path d="M359.5,2160l1,-2160" style="fill:none;stroke:#808080;stroke-width:2.08px;"/><path d="M479.5,2160l1,-2160" style="fill:none;stroke:#808080;stroke-width:2.08px;"/><path d="M599.5,2160l1,-2160" style="fill:none;stroke:#808080;stroke-width:2.08px;"/><path d="M719.5,2160l1,-2160" style="fill:none;stroke:#808080;stroke-width:2.08px;"/><path d="M839.5,2160l1,-2160" style="fill:none;stroke:#808080;stroke-width:2.08px;"/><path d="M959.5,2160l1,-2160" style="fill:none;stroke:#808080;stroke-width:2.08px;"/><path d="M1079.5,2160l1,-2160" style="fill:none;stroke:#808080;stroke-width:2.08px;"/><path d="M1199.5,2160l1,-2160" style="fill:none;stroke:#808080;stroke-width:2.08px;"/><path d="M1319.5,2160l1,-2160" style="fill:none;stroke:#808080;stroke-width:2.08px;"/><path d="M1439.5,2160l1,-2160" style="fill:none;stroke:#808080;stroke-width:2.08px;"/><path d="M1559.5,2160l1,-2160" style="fill:none;stroke:#808080;stroke-width:2.08px;"/><path d="M1679.5,2160l1,-2160" style="fill:none;stroke:#808080;stroke-width:2.08px;"/><path d="M1799.5,2160l1,-2160" style="fill:none;stroke:#808080;stroke-width:2.08px;"/><path d="M1919.5,2160l1,-2160" style="fill:none;stroke:#808080;stroke-width:2.08px;"/><path d="M2039.5,2160l1,-2160" style="fill:none;stroke:#808080;stroke-width:2.08px;"/></g></svg>